<svg xmlns="http://www.w3.org/2000/svg" viewBox="0 0 256 224"><path d="M14.685 126.309l.877 19.348 13.067 46.906 31.69-12.401 13.377 12.584 8.53 14.026 56.5 10.844 4.838-33.016-6.995-13.64 1.114-3.37 6.634 7.499 3.233 12.11 23.7 37.334 23.868-.179 26.25-19.378-28.442-44.485 25.313 10.274 21.808 8.993 3.812-38.77-26.641-21.251-76.086-22.42 2.862-8.857 2.739-.554 37.612 8.718-26.572-25.041-64.644 5.493-7.598 10.518-24.56 23.572-25.482 9.139" fill="#757575" fill-opacity=".651"/><path d="M85.643 39.606l36.571-6.63-.953 20.866-6.857-3.547-28.485 20.591z" fill="#bf360c"/><path d="M73.107 36.267L71.643 18.45l14 21.156.276 31.28-1.103-.184-2.522-30.168z" fill="#d84315"/><path d="M71.643 18.45l36.047-4.638 14.524 19.164-36.571 6.63z" fill="#ff5722"/><path d="M126.275 32.864l38.467 10.74-5.55 32.52-8.204-2.53.457-4.201-26.592-13.81z" fill="#c62828"/><path d="M126.275 32.864l12.052-17.054 35.817 9.46-9.402 18.334z" fill="#f44336"/><path d="M174.144 25.27l-7.67 44.066-7.283 6.787 5.551-32.519z" fill="#9f1c1c" opacity=".67"/><path d="M166.686 43.687l-5.999 31.055 16.044 14.953 10.704-21.411 2.466.8.09-.72z" fill="#c2185b"/><path d="M166.686 43.687l31.655-6.664 24.564 21.768-32.913 9.573z" fill="#e91e63"/><path d="M222.905 58.791l-32.913 9.573-.091.72 26.218 8.66z" fill="#880e4f"/><path d="M174.164 95.452l13.271-27.168 44.75 14.787-7.407 31.789z" fill="#9c27b0"/><path d="M66.854 92.317l17.902-18.748.539.259.236 13.766-14.653 13.73zM24.308 150.657l11.453 8.679 17.565-7.372 4.451-11.006zM60.32 180.162l53.865 11.978 4.032-28.935 9.67-48.863 17.594-8.843.735-5.162 3.93 3.443 61.589 21.059 13.043-9.98 2.637-10.655 7.045 7.893-9.682 2.763 8.41 3.83-6.18 31.965-19.15-5.72-7.536-3.611-3.807 11.682 13.379 18.859-42.403 22.683-18.786-11.042-19.324-68.79-5.835 31.996 13.023 24.248-4.446 33.575-58.427-11.789-11.48-10.43" fill="#423d4f"/><path d="M174.164 95.452l50.614 19.408-16.92 30.075-7.536-3.611 5.268-8.415z" fill="#6a1b9a"/><path d="M129.66 111.175l44.504-15.723 31.426 37.457-46.847 20.84z" fill="#009688"/><path d="M129.66 111.175l-6.114 35.537 25.159 36.794 10.038-29.758z" fill="#004d40"/><path d="M158.743 153.748l46.847-20.839-14.279 33.242-42.606 17.355z" fill="#00695c"/><path d="M84.816 70.702l29.588-20.407 37.042 19.098-27.297 24.047z" fill="#fff"/><path d="M84.816 70.702l39.333 22.738-1.31 19.818-32.786-5.882-2.293-2.724z" fill="#757575"/><path d="M124.149 93.44l27.296-24.047-5.964 36.106-15.822 5.676-.278 3.54-6.542-1.457z" fill="none"/><path d="M145.481 105.5l5.965-36.107-27.297 24.047-1.31 19.818 5.047 1.084 1.773-3.167z" fill="#424242"/><path d="M72.77 104.674l55.116 9.668-9.782 49.07-64.778-11.448z" fill="#cddc39"/><path d="M53.326 151.964l6.994 28.198 53.865 11.978 3.919-28.727z" fill="#9e9d24"/><path d="M1.78 80.17l52.307-11.893 16.791 33.047-59.647 15.172z" fill="#ffeb3b"/><path d="M11.231 116.496l59.647-15.172.502 7.22-13.603 32.414-33.47 9.699z" fill="#f9a825"/><path d="M19.269 45.991l30.043-19.169 32.982 13.712-26.77 23.27z" fill="#ffc107"/><path d="M55.524 63.803l26.77-23.27 2.522 30.169-.06 2.867-17.902 18.748-9.052-17.275z" fill="#d46c17"/><path d="M19.269 45.991l4.805 29.128 30.013-6.842 3.715 6.765-2.278-11.239z" fill="#ff8f00"/></svg>