<svg xmlns="http://www.w3.org/2000/svg" width="320" height="266.667" version="1.0" viewBox="0 0 240 200"><path fill="#424242" stroke="#424242" stroke-width=".75" d="M46.152 18.128l-.599 62.47 44.194 1.05-.3 7.94-43.896-.516.106 28.072 6.78 18.644 8.474 13.877 15.784 18.22 20.974 16.42 22.67 13.665 24.576-14.3 22.034-17.903 11.547-14.3 7.627-9.429 5.614-14.407 3.496-11.546.424-26.377h-44.492l.106-8.793 44.174-.318V18.521L121.61 1.572z"/><g transform="translate(.518 -1.244)"><ellipse cx="120.122" cy="87.32" fill="#fff" stroke="#424242" stroke-width=".727" rx="27.758" ry="27.247"/><ellipse cx="119.458" cy="78.325" fill="#424242" fill-opacity=".941" stroke="#424242" stroke-width=".73" rx="8.114" ry="7.425"/><path fill="#424242" stroke="#424242" stroke-width=".75" d="M117.62 85.406l.213 3.602 1.8 1.906-2.648 2.013 2.119 2.543-2.33 3.283 3.813 2.755 2.542-2.543-.106-13.241-4.449-2.754"/><ellipse cx="120.057" cy="75.819" fill="#fff" rx="2.383" ry="2.436"/></g></svg>