<svg xmlns="http://www.w3.org/2000/svg" width="240" height="240"><path d="M221.8 80.412c8.814 12.358 13.87 26.493 13.87 41.517 0 15.024-5.056 29.247-13.958 41.627-2.501 15.013-8.979 28.61-19.676 39.267-10.51 10.458-23.995 17.12-39.507 19.655-12.405 8.78-26.606 13.839-41.688 13.839-15.083 0-29.305-5.015-41.7-13.839-15.511-2.535-28.996-9.197-39.506-19.655-10.698-10.657-17.176-24.254-19.666-39.267C11.068 151.166 6 136.986 6 121.929c0-15.057 5.068-29.258 13.97-41.627 2.478-15.013 8.934-28.61 19.665-39.267 10.51-10.47 23.995-17.12 39.507-19.655 12.394-8.835 26.605-13.85 41.699-13.85 15.093 0 29.25 5.015 41.688 13.85 15.512 2.535 28.996 9.186 39.507 19.655 10.51 10.47 17.23 24.013 19.764 39.377zm10.84 41.517a67.203 66.945 0 0 0-10.003-34.735 97.83 97.454 0 0 1-.628 21.324 113.805 113.367 0 0 1-2.754 13.52 103.13 102.733 0 0 1 3.305 34.768 67.203 66.945 0 0 0 10.07-34.877zm-13.66-13.817a91.44 91.089 0 0 0-.088-26.558 95.12 94.754 0 0 0-25.527-23.596 132.303 131.794 0 0 1 10.93 29.533 131.84 131.333 0 0 1 13.22 28.643 93.023 93.023 0 0 0 1.465-8.022zm-.144 54.247a95.297 94.93 0 0 0-1.3-34.482 131.487 130.982 0 0 1-13.275 28.534 132.754 132.244 0 0 1-10.907 29.445 95.572 95.204 0 0 0 25.493-23.497zm-2.72-40.364A124.635 124.155 0 0 0 206.2 97.06a148.96 148.387 0 0 1 0 49.89 124.25 123.771 0 0 0 9.926-24.956zm1.476-46.938a66.102 65.847 0 0 0-49.709-49.518 102.92 102.524 0 0 1 22.519 27.086 103.108 102.711 0 0 1 27.19 22.443zm-17.705 125.615a67.258 67 0 0 0 17.627-31.827 103.328 102.93 0 0 1-27.112 22.345 103.075 102.678 0 0 1-22.508 27.074 67.082 66.824 0 0 0 31.993-17.592zm-1.002-121.335a124.492 124.013 0 0 0-10.676-24.518 124.69 124.21 0 0 0-24.534-10.612 151.34 150.758 0 0 1 19.048 16.078 148.42 147.85 0 0 1 16.15 19.063zm-10.676 109.68a124.7 124.221 0 0 0 10.654-24.463 150.37 149.792 0 0 1-35.2 35.119 125.086 124.605 0 0 0 24.535-10.645zm-3.15-139.378a95.308 94.941 0 0 0-23.665-25.417 87.155 86.82 0 0 0-13.408-1.031 102.215 101.822 0 0 0-21.251 2.315 130.903 130.4 0 0 1 28.787 13.28 132.578 132.068 0 0 1 29.525 10.897zm-23.676 169.953a95.131 94.765 0 0 0 23.653-25.417 132.336 131.827 0 0 1-29.525 10.853 131.333 130.828 0 0 1-28.787 13.28 102.204 101.811 0 0 0 21.251 2.304 87.166 86.83 0 0 0 13.408-1.02zm3.834-72.257c16.129-18.733 9.915-51.087 4.407-71.894-6.974 12.346-22.728 21.126-35.96 23.354-12.427 2.118-26.01-1.175-37.6 2.425-26.441 8.22-28.06 38.894-14.322 46.697l.66.538c.11 0 24.238-2.612 36.07-6.102 17.297-5.125 36.819-19.217 44.068-36.6-4.407 18.283-21.55 35.03-38.097 42.175-8.813 3.808-15.335 4.927-29.845 8.275a28.92 28.808 0 0 0-9.606 4.39c16.393-10.404 60.361 9.778 80.236-13.269zm-17.242-127.13c2.622 0 5.19.11 7.712.319a65.76 65.507 0 0 0-69.704 0c2.523-.209 5.1-.318 7.712-.318a106.864 106.453 0 0 1 27.135 3.632 106.754 106.344 0 0 1 27.145-3.632zm7.712 203.118q-3.79.318-7.712.33a107.162 106.75 0 0 1-27.134-3.633 107.283 106.87 0 0 1-27.135 3.632c-2.622 0-5.19-.11-7.712-.318a65.727 65.474 0 0 0 69.704 0zM145.97 36.876a123.236 122.762 0 0 0-25.14-9.877 123.026 122.553 0 0 0-25.141 9.877 149.147 148.574 0 0 1 50.27 0zm-25.13 180.038a123.236 122.762 0 0 0 25.141-9.877 149.147 148.574 0 0 1-50.27 0 123.026 122.553 0 0 0 25.13 9.877zm-5.893-191.375a102.127 101.734 0 0 0-21.241-2.315 87.034 86.7 0 0 0-13.408 1.031 95.153 94.787 0 0 0-23.675 25.428 132.5 131.991 0 0 1 29.57-10.864 130.903 130.4 0 0 1 28.754-13.28zM93.695 220.612a102.116 101.723 0 0 0 21.24-2.304 131.102 130.597 0 0 1-28.743-13.28 132.578 132.068 0 0 1-29.536-10.853 95.308 94.941 0 0 0 23.664 25.417 87.034 86.7 0 0 0 13.375 1.02zm-20.547-57.671a6.908 6.881 0 1 0-7.029-6.771 6.886 6.86 0 0 0 7.03 6.771zm4.859-118.734a124.492 124.013 0 0 0-24.524 10.612 124.492 124.013 0 0 0-10.686 24.518A150.227 149.65 0 0 1 78.05 44.218zM53.472 189.071a124.998 124.518 0 0 0 24.535 10.613 151.461 150.878 0 0 1-19.049-16.078 149.335 148.76 0 0 1-16.161-19.074 124.569 124.09 0 0 0 10.686 24.496zM51.269 52.625A103.284 102.887 0 0 1 73.776 25.55 65.914 65.66 0 0 0 24.2 74.936a103.097 102.7 0 0 1 27.069-22.311zM73.776 218.34a103.427 103.03 0 0 1-22.507-27.119 103.284 102.887 0 0 1-27.102-22.344 65.914 65.66 0 0 0 49.576 49.386zM37.42 87.535a132.325 131.816 0 0 1 10.94-29.533 94.988 94.623 0 0 0-25.526 23.486 95.264 94.897 0 0 0 1.31 34.58 132.611 132.101 0 0 1 13.232-28.577zm10.94 98.398A132.325 131.816 0 0 1 37.42 156.4a132.611 132.101 0 0 1-13.22-28.534 95.253 94.886 0 0 0-1.311 34.581 95.142 94.776 0 0 0 25.427 23.442zm-15.049-64.004a148.63 148.058 0 0 1 2.115-24.868 124.712 124.232 0 0 0-9.827 24.868 124.712 124.232 0 0 0 9.86 24.868 148.63 148.058 0 0 1-2.148-24.868zm-10.863 0a103.163 102.766 0 0 1-3.305-34.888 65.771 65.518 0 0 0 0 69.776 103.163 102.766 0 0 1 3.305-34.888z" fill="#424242"/><path d="M169.602 75.44c5.508 20.852 11.744 53.162-4.407 71.895-19.83 23.047-63.843 2.854-80.214 13.17a28.92 28.808 0 0 1 9.606-4.39c14.51-3.293 21.043-4.467 29.845-8.275 16.526-7.144 33.668-23.892 38.097-42.175-7.271 17.383-26.782 31.486-44.068 36.6-11.788 3.49-35.948 6.102-36.07 6.102l-.66-.538c-13.76-7.792-12.12-38.466 14.322-46.697 11.59-3.6 25.173-.307 37.6-2.425 13.232-2.151 28.986-10.93 35.949-23.266z" fill="#fff"/></svg>