<?xml version="1.0" encoding="UTF-8"?>
<!-- Created with Inkscape (http://www.inkscape.org/) -->
<svg width="1322.8" height="680.31" version="1.1" viewBox="0 0 350 180" xmlns="http://www.w3.org/2000/svg">
 <text x="89.261131" y="114.75728" fill="#000000" font-family="sans-serif" font-size="10.583px" stroke-width=".26458" style="line-height:1.25" xml:space="preserve"><tspan x="89.261131" y="114.75728" fill="#424242" font-family="Lato" font-weight="bold" stroke-width=".26458">...</tspan></text>
 <g stroke="#424242" stroke-linejoin="round">
  <path d="m318.11 134.49a33.431 5.386 0 0 1-17.712 4.7535 33.431 5.386 0 0 1-34.368-0.28357 33.431 5.386 0 0 1-14.606-5.0202" fill="#507d70" stroke-width="2.0283"/>
  <rect x="251.11" y="51.977" width="68.607" height="82.467" rx="2.5723" ry="3.1164" fill="#507d70" stroke-width="2"/>
  <rect x="263.43" y="69.688" width="42.749" height="8.8717" ry="1.7114" fill="#ea8d4a"/>
 </g>
 <text x="266.83261" y="76.138168" fill="#000000" font-family="sans-serif" font-size="5.6444px" stroke-width=".26458" style="line-height:1.25" xml:space="preserve"><tspan x="266.83261" y="76.138168" fill="#ffffff" font-family="Lato" font-size="5.6444px" font-weight="bold" stroke-width=".26458">Schema App 1</tspan></text>
 <rect x="263.67" y="80.841" width="42.749" height="8.8717" ry="1.7114" fill="#ea8d4a" stroke="#424242" stroke-linejoin="round"/>
 <text x="266.53738" y="87.291153" fill="#000000" font-family="sans-serif" font-size="5.6444px" stroke-width=".26458" style="line-height:1.25" xml:space="preserve"><tspan x="266.53738" y="87.291153" fill="#ffffff" font-family="Lato" font-size="5.6444px" font-weight="bold" stroke-width=".26458">Schema App 2</tspan></text>
 <rect x="263.74" y="92.349" width="42.749" height="8.8717" ry="1.7114" fill="#ea8d4a" stroke="#424242" stroke-linejoin="round"/>
 <text x="281.93741" y="98.882858" fill="#000000" font-family="sans-serif" font-size="5.6444px" stroke-width=".26458" style="line-height:1.25" xml:space="preserve"><tspan x="281.93741" y="98.882858" fill="#ffffff" font-family="Lato" font-size="5.6444px" font-weight="bold" stroke-width=".26458">...</tspan></text>
 <rect x="264.09" y="105" width="42.749" height="8.8717" ry="1.7114" fill="#ea8d4a" stroke="#424242" stroke-linejoin="round"/>
 <text x="269.67584" y="111.17143" fill="#000000" font-family="sans-serif" font-size="5.6444px" stroke-width=".26458" style="line-height:1.25" xml:space="preserve"><tspan x="269.67584" y="111.17143" fill="#ffffff" font-family="Lato" font-size="5.6444px" font-weight="bold" stroke-width=".26458">Schema App n</tspan></text>
 <g>
  <ellipse cx="285.45" cy="55.023" rx="33.431" ry="5.6551" fill="#ea8d4a" stroke="#424242" stroke-linejoin="round" stroke-width="2.0283"/>
  <path d="m324.1 119.94a35.761 19.757 0 0 1-9e-3 0.43099" fill="#507d70"/>
  <path d="m317.71 132.84a32.84 7.6153 0 0 1-32.793 7.6153 32.84 7.6153 0 0 1-32.887-7.5936 32.84 7.6153 0 0 1 32.699-7.637 32.84 7.6153 0 0 1 32.98 7.5718l-32.84 0.0435z" fill="#507d70"/>
 </g>
 <text x="237.55612" y="152.81975" fill="#000000" font-family="sans-serif" font-size="10.583px" stroke-width=".26458" style="line-height:1.25" xml:space="preserve"><tspan x="237.55612" y="152.81975" fill="#424242" font-family="Lato" font-weight="bold" stroke-width=".26458">Une base de données</tspan></text>
 <rect x="67.362" y="14.003" width="70.181" height="33.549" rx="1.9229" ry="2.301" fill="#507d70" stroke="#424242" stroke-linejoin="round" stroke-width="1.7335"/>
 <text x="81.57428" y="29.159401" fill="#000000" font-family="sans-serif" font-size="8.4667px" stroke-width=".26458" style="line-height:1.25" xml:space="preserve"><tspan x="81.57428" y="29.159401" fill="#ffffff" font-family="Lato" font-size="8.4667px" font-weight="bold" stroke-width=".26458">Spring Boot</tspan></text>
 <text x="93.500694" y="38.547897" fill="#000000" font-family="sans-serif" font-size="8.4667px" stroke-width=".26458" style="line-height:1.25" xml:space="preserve"><tspan x="93.500694" y="38.547897" fill="#ffffff" font-family="Lato" font-size="8.4667px" font-weight="bold" stroke-width=".26458">App 1</tspan></text>
 <rect x="31.962" y="65.28" width="70.181" height="33.549" rx="1.9229" ry="2.301" fill="#507d70" stroke="#424242" stroke-linejoin="round" stroke-width="1.7335"/>
 <text x="46.173885" y="80.436752" fill="#000000" font-family="sans-serif" font-size="8.4667px" stroke-width=".26458" style="line-height:1.25" xml:space="preserve"><tspan x="46.173885" y="80.436752" fill="#ffffff" font-family="Lato" font-size="8.4667px" font-weight="bold" stroke-width=".26458">Spring Boot</tspan></text>
 <text x="58.100311" y="89.825241" fill="#000000" font-family="sans-serif" font-size="8.4667px" stroke-width=".26458" style="line-height:1.25" xml:space="preserve"><tspan x="58.100311" y="89.825241" fill="#ffffff" font-family="Lato" font-size="8.4667px" font-weight="bold" stroke-width=".26458">App 1</tspan></text>
 <rect x="70.061" y="132.37" width="70.181" height="33.549" rx="1.9229" ry="2.301" fill="#507d70" stroke="#424242" stroke-linejoin="round" stroke-width="1.7335"/>
 <text x="84.273438" y="147.52678" fill="#000000" font-family="sans-serif" font-size="8.4667px" stroke-width=".26458" style="line-height:1.25" xml:space="preserve"><tspan x="84.273438" y="147.52678" fill="#ffffff" font-family="Lato" font-size="8.4667px" font-weight="bold" stroke-width=".26458">Spring Boot</tspan></text>
 <text x="96.199852" y="156.91527" fill="#000000" font-family="sans-serif" font-size="8.4667px" stroke-width=".26458" style="line-height:1.25" xml:space="preserve"><tspan x="96.199852" y="156.91527" fill="#ffffff" font-family="Lato" font-size="8.4667px" font-weight="bold" stroke-width=".26458">App 1</tspan></text>
 <g fill="none" stroke="#424242" stroke-width="1.3229">
  <path d="m139.09 30.635 124.61 43.646"/>
  <path d="m103.76 82.071 161.2 3.0259"/>
  <path d="m141.46 149.23 123.2-39.61"/>
 </g>
</svg>
