<svg xmlns="http://www.w3.org/2000/svg" width="1322.8" height="680.31" version="1.1" viewBox="0 0 350 180"><text x="89.261" y="114.757" fill="#000" stroke-width=".265" font-family="sans-serif" font-size="10.583" style="line-height:1.25" xml:space="preserve"><tspan x="89.261" y="114.757" fill="#424242" stroke-width=".265" font-family="Lato" font-weight="bold">...</tspan></text><g stroke="#424242" stroke-linejoin="round"><path fill="#507d70" stroke-width="2.028" d="m318.11 134.49a33.431 5.386 0 0 1-17.712 4.7535 33.431 5.386 0 0 1-34.368-0.28357 33.431 5.386 0 0 1-14.606-5.0202"/><rect width="68.607" height="82.467" x="251.11" y="51.977" fill="#507d70" stroke-width="2" rx="2.572" ry="3.116"/><rect width="42.749" height="8.872" x="263.43" y="69.688" fill="#ea8d4a" ry="1.711"/></g><text x="266.833" y="76.138" fill="#000" stroke-width=".265" font-family="sans-serif" font-size="5.644" style="line-height:1.25" xml:space="preserve"><tspan x="266.833" y="76.138" fill="#fff" stroke-width=".265" font-family="Lato" font-size="5.644" font-weight="bold">Schema App 1</tspan></text><rect width="42.749" height="8.872" x="263.67" y="80.841" fill="#ea8d4a" stroke="#424242" stroke-linejoin="round" ry="1.711"/><text x="266.537" y="87.291" fill="#000" stroke-width=".265" font-family="sans-serif" font-size="5.644" style="line-height:1.25" xml:space="preserve"><tspan x="266.537" y="87.291" fill="#fff" stroke-width=".265" font-family="Lato" font-size="5.644" font-weight="bold">Schema App 2</tspan></text><rect width="42.749" height="8.872" x="263.74" y="92.349" fill="#ea8d4a" stroke="#424242" stroke-linejoin="round" ry="1.711"/><text x="281.937" y="98.883" fill="#000" stroke-width=".265" font-family="sans-serif" font-size="5.644" style="line-height:1.25" xml:space="preserve"><tspan x="281.937" y="98.883" fill="#fff" stroke-width=".265" font-family="Lato" font-size="5.644" font-weight="bold">...</tspan></text><rect width="42.749" height="8.872" x="264.09" y="105" fill="#ea8d4a" stroke="#424242" stroke-linejoin="round" ry="1.711"/><text x="269.676" y="111.171" fill="#000" stroke-width=".265" font-family="sans-serif" font-size="5.644" style="line-height:1.25" xml:space="preserve"><tspan x="269.676" y="111.171" fill="#fff" stroke-width=".265" font-family="Lato" font-size="5.644" font-weight="bold">Schema App n</tspan></text><g><ellipse cx="285.45" cy="55.023" fill="#ea8d4a" stroke="#424242" stroke-linejoin="round" stroke-width="2.028" rx="33.431" ry="5.655"/><path fill="#507d70" d="m324.1 119.94a35.761 19.757 0 0 1-9e-3 0.43099"/><path fill="#507d70" d="m317.71 132.84a32.84 7.6153 0 0 1-32.793 7.6153 32.84 7.6153 0 0 1-32.887-7.5936 32.84 7.6153 0 0 1 32.699-7.637 32.84 7.6153 0 0 1 32.98 7.5718l-32.84 0.0435z"/></g><text x="237.556" y="152.82" fill="#000" stroke-width=".265" font-family="sans-serif" font-size="10.583" style="line-height:1.25" xml:space="preserve"><tspan x="237.556" y="152.82" fill="#424242" stroke-width=".265" font-family="Lato" font-weight="bold">Une base de données</tspan></text><rect width="70.181" height="33.549" x="67.362" y="14.003" fill="#507d70" stroke="#424242" stroke-linejoin="round" stroke-width="1.734" rx="1.923" ry="2.301"/><text x="81.574" y="29.159" fill="#000" stroke-width=".265" font-family="sans-serif" font-size="8.467" style="line-height:1.25" xml:space="preserve"><tspan x="81.574" y="29.159" fill="#fff" stroke-width=".265" font-family="Lato" font-size="8.467" font-weight="bold">Spring Boot</tspan></text><text x="93.501" y="38.548" fill="#000" stroke-width=".265" font-family="sans-serif" font-size="8.467" style="line-height:1.25" xml:space="preserve"><tspan x="93.501" y="38.548" fill="#fff" stroke-width=".265" font-family="Lato" font-size="8.467" font-weight="bold">App 1</tspan></text><rect width="70.181" height="33.549" x="31.962" y="65.28" fill="#507d70" stroke="#424242" stroke-linejoin="round" stroke-width="1.734" rx="1.923" ry="2.301"/><text x="46.174" y="80.437" fill="#000" stroke-width=".265" font-family="sans-serif" font-size="8.467" style="line-height:1.25" xml:space="preserve"><tspan x="46.174" y="80.437" fill="#fff" stroke-width=".265" font-family="Lato" font-size="8.467" font-weight="bold">Spring Boot</tspan></text><text x="58.1" y="89.825" fill="#000" stroke-width=".265" font-family="sans-serif" font-size="8.467" style="line-height:1.25" xml:space="preserve"><tspan x="58.1" y="89.825" fill="#fff" stroke-width=".265" font-family="Lato" font-size="8.467" font-weight="bold">App 1</tspan></text><rect width="70.181" height="33.549" x="70.061" y="132.37" fill="#507d70" stroke="#424242" stroke-linejoin="round" stroke-width="1.734" rx="1.923" ry="2.301"/><text x="84.273" y="147.527" fill="#000" stroke-width=".265" font-family="sans-serif" font-size="8.467" style="line-height:1.25" xml:space="preserve"><tspan x="84.273" y="147.527" fill="#fff" stroke-width=".265" font-family="Lato" font-size="8.467" font-weight="bold">Spring Boot</tspan></text><text x="96.2" y="156.915" fill="#000" stroke-width=".265" font-family="sans-serif" font-size="8.467" style="line-height:1.25" xml:space="preserve"><tspan x="96.2" y="156.915" fill="#fff" stroke-width=".265" font-family="Lato" font-size="8.467" font-weight="bold">App 1</tspan></text><g fill="none" stroke="#424242" stroke-width="1.323"><path d="m139.09 30.635 124.61 43.646"/><path d="m103.76 82.071 161.2 3.0259"/><path d="m141.46 149.23 123.2-39.61"/></g></svg>