<svg xmlns="http://www.w3.org/2000/svg" width="200mm" height="250mm" viewBox="0 0 708.66142 885.82677"><g fill="#3d3d3f" fill-rule="evenodd"><path d="M113.25 752.755l-4.464 4.107-9.286 10.536-6.964 13.036-6.43 16.25-2.142 18.75.893 11.428L87 834.005l7.32 8.393 6.43 3.93 8.393 4.284 7.143.715 23.393-6.25 30.89-6.25 34.287-5.357 22.68-.715 15.534-1.607-45.177-67.32zM454.68 867.398l24.64-2.32 27.144-1.073 31.43 1.965 13.392 3.392 44.82 10.358 15 3.214 8.037-.714 9.107-1.786 16.25-6.964 8.393-6.965 5.893-10 1.785-8.214-1.784-16.606-2.143-16.786-7.322-14.464-15.713-17.68-28.928-11.427-6.787-.357-7.5.535-6.607 2.68-15.536 6.785-8.93 3.392-15.177 1.072-16.786-7.857-30.536 2.857-31.427 19.82-18.75 52.144z"/></g><path d="M184.68 631.112c-1.073-.535-20.18-10.178-20.18-10.178l-23.036-8.93-18.214-6.07-11.786-3.214-11.25-.358-8.393-.178-6.963.893-7.143 2.5-12.32 7.143-9.108 6.607-5.18 7.5-5 8.393-3.75 6.785-2.142 5.893-4.82 20.714-1.608 4.108-.536 7.32.893 6.608 1.964 12.143 1.607 4.465 1.965 2.68 5.356 5.713 6.07 7.68 6.43 7.142h.714l6.786 4.285 29.107 11.786L112 752.006l110.714 66.43 1.25 6.25 1.965 3.57 6.25 2.143 76.07 14.464 42.5 8.75 51.25 1.965 20.18 4.82 17.14 5.18 17.323.357 6.25-21.43 2.143-8.927 2.143-5 1.25-8.572 7.5-11.07 8.39-13.037 10.18-10 5.714-3.393 11.072-1.607 19.82-5.178 22.858-8.93 53.93-22.678L622 734.505l18.214-17.857 3.036-5.357 4.286-7.32 3.214-29.465-.536-7.32-.714-5.715-2.5-6.786-6.43-12.857-15.356-19.643-5.714-2.857-10.893-5-7.32-3.215-14.644-2.32-8.75-.715-16.43 1.607-15 3.036-25.713 8.035z" fill="#01579b" fill-rule="evenodd"/><g fill="#e0e0e0" fill-rule="evenodd"><path d="M131.478 769.036l-6.314 7.324-4.672 9.47-3.535 7.955-2.273 8.965-1.263 9.218-1.26 7.07-.128 8.334-.126 4.546 2.904 4.798 2.4 1.894 1.767.253 4.798-4.546 5.177-3.535 1.642-2.778 4.672-7.83 4.546-8.585 1.01-5.557.63-20.33-3.03-9.217-2.398-5.556-1.263-.884-1.388-.505zM154.08 777.496l1.64 7.324v12.374l-1.766 13.132-2.652 7.45-3.914 11.49-5.304 4.167-.63 1.894 1.388.632 3.788-1.264 3.536-3.536 4.924-5.808 2.4-5.177 1.893-5.43-.38 5.935-1.26 4.167-3.032 4.42-1.514 2.4v1.514l2.525.632 3.032-1.64 4.42-6.694 2.146-3.914.758-4.924 4.166-2.4v8.713l-3.41 5.05-1.893 2.4.252 1.39 3.283.883 2.273-1.263 5.808-6.945 1.01-2.65.253-5.557 4.544-1.767.253 7.197-3.03 3.662-.506 2.02.254 2.905 2.02 1.39.253 6.312.884 2.903 2.4 2.526 4.924.756 7.955-.757 6.818-1.77 10.227-10.227 8.46-9.723-.126-3.66-3.03-2.148-12.376 12.627-9.85 10.984-2.65 1.39-4.42.63-2.525-1.01-.885-4.167.253-6.44 2.904-4.924 3.41-2.65 6.944-3.158 16.415-4.925-13.005-7.07-.884 5.303-2.903 3.03.253-10.86-7.072-4.67-1.894 5.176-1.515 3.156-2.274-1.01-.884-2.526 2.273-2.904 1.516-3.03-4.924-2.778-4.42 6.187-1.767 3.03-1.77 1.39.38-6.062 2.652-5.43.757-1.64-6.567-4.168-2.146 5.935-2.778 5.808-3.537 4.546 1.39-9.09 1.767-7.2.126-2.65-4.924-3.283-1.516 7.45-1.39 2.273-.63-7.576-.38-4.293zM604.734 793.406l-5.43 8.713-1.515 9.343-.506 15.026 2.652 9.974 7.576 18.94 4.798 7.197 7.83 7.83 4.545-2.904 4.545-7.324 2.778-5.43.758-8.586-1.01-11.49-1.642-8.965-2.65-7.323-5.305-9.596-5.935-5.808-10.228-9.217zM462.43 844.67l-2.4 8.46 4.924.506 16.037-3.41 5.556.76 3.157-1.895 2.4-2.146-.632 7.197.632 4.8 4.167 3.41.883-3.79-.38-3.66-2.777-8.587 9.976 10.228 25.38 26.517 8.333 1.642 7.703 1.388 5.808-4.8 2.652-5.176.884-10.1-2.147-10.734-9.723-8.586 1.263-8.082 8.713 1.263 1.262 6.06-.505 5.178 1.137 2.4h4.04l3.157-3.914.63-13.26 4.294-12.625 2.272 6.945 1.01 3.915-1.767 8.586.125 5.43 1.894 4.166 2.272.506 4.924-.127-2.904-5.807.253-9.218 2.65 5.05 3.032 9.092 1.01 5.304 1.515.885 7.198-1.137-3.283-5.556-2.4-12.122-3.788-17.55-1.39-7.198.632-9.344 1.768-5.43-.253-1.767-2.525-.757-3.03 2.146-2.274 7.07-.757 7.072-.504 6.187L569 808.684l-1.64-3.915-5.43-1.515-1.77.63.128 5.43 5.303 12.25-3.535-.632-4.167-.253-4.545-8.84-1.768-3.155-.758-2.652-3.788-.63-2.147.756-.505 3.787 1.64 6.187 5.936 8.966 2.02 3.66.758 6.315-1.642.63-4.672-5.555-5.556-8.46-2.525-8.333-2.273-4.294-3.156-3.41-3.662-.504-.758.757-.38 2.4 2.274 5.807 4.925 10.986 1.01 3.66-1.263 6.062-1.515.758-5.052-9.975-8.712-18.562-1.768-2.778-3.662-1.39-2.778.633-.884 2.272 3.03 7.324 5.178 11.743 4.42 8.965 5.176 6.06-7.324-2.398-8.333-.884-.883-6.313-5.05-11.87-6.82-1.262 1.01-8.713.506-5.43-2.4-4.166-3.282 1.01-3.156 5.808-1.515 8.334-1.264 20.203 3.788.76 4.04-7.073.38-6.06 1.262-.632 1.768 7.324 1.39 7.07-39.27-1.263-1.516 5.81 46.72 4.165 21.844 2.147 6.44 1.135 4.672 3.41 5.177 6.187 1.01 8.586v6.82l-3.787 5.176-3.283 3.283-4.672 1.01-19.193-21.718-17.804-15.66-7.828-2.398-13.005-1.01z"/></g><path d="M205.57 659.327l3.573 2.143 2.32 3.392 1.787 4.108 2.32 3.035 13.037 4.286 12.857 5.18 8.93 4.107 34.463 20.893 37.322 23.928 29.64 16.43 31.61 12.5s37.14 10.892 37.856 11.07c.714.18 38.214 6.964 38.214 6.964l20.714 5.536 12.143 2.322 11.25-.536 23.214-5.536 4.823-1.25-1.607-1.786-15.18 2.5-17.142 3.036-11.964-.893-15.357-3.928-17.322-3.393-25.713-4.822-9.82-2.5-28.93-7.678-26.964-10.357L339.5 737.54l-21.786-12.32 34.822-13.572 67.32-30.357 35-15.535 7.5-.893 18.394-2.857 10.893-5.357 6.25-3.036 2.143-2.678 4.285-6.072-289.284-1.785z" fill-rule="evenodd" stroke="#000"/><path d="M175.925 611.073l5.303 36.62 1.768 9.09 1.767 1.515 3.03 1.768 328.3-14.142 4.294-1.263 4.798-4.04 1.515-3.03 2.273-8.08 4.04-27.275 20.96-33.84 3.284-93.187-19.95-45.457-125.512-133.086-137.128 1.767-101.773 107.835-33.082 79.55z" fill="#e0e0e0" fill-rule="evenodd"/><g transform="translate(0 -166.535)"><path d="M225.043 360.835l-1.768 6.566.253 8.966 1.64 7.577 5.052 12.374 8.84 12.627 10.227 20.708 7.07 15.657 6.693 10.1 12.5 13.512 7.072 8.586 16.29 10.733 11.363 5.683 17.425 6.06 12.627.885 12.627-1.515 14.9-4.04 13.637-5.304 10.986-7.072 12.374-10.733 9.092-8.208 11.238-20.077 7.828-16.288 4.167-11.49 1.39-7.324 5.43-6.188 10.732-16.667 1.01-1.515 1.01-4.546.505-8.46-.126-6.82-1.894-7.827-27.78-56.443-41.542-17.046-42.426-5.303-64.65.757-46.088 44.573z" fill="#f4d2a2" fill-rule="evenodd"/><ellipse cx="380.512" cy="378.197" rx="18.783" ry="22.097" fill="#fff"/><ellipse cx="380.417" cy="377.534" rx="11.175" ry="12.785" fill="#3d3d3f"/><ellipse cx="384.079" cy="383.438" rx="2.715" ry="3.409" fill="#fff"/><path d="M332.467 251.374a3.977 5084.996 90 0 1 17.792.333" fill="#fff"/><path d="M311.348 455.41l4.42 6.946 5.177 5.492 3.85 2.463 5.557 1.263 5.303.57 5.24-.38 1.768-.253 5.05-1.578 3.662-1.768 3.03-2.336 2.78-2.146 2.65-2.968 1.83-2.273 1.453-2.65z" fill="#fff" fill-rule="evenodd"/><ellipse cx="297.269" cy="377.408" rx="17.741" ry="22.192" fill="#fff"/><ellipse cx="296.985" cy="377.282" rx="10.701" ry="13.1" fill="#3d3d3f"/><ellipse cx="300.615" cy="383.059" rx="2.715" ry="3.662" fill="#fff"/><ellipse cx="397.905" cy="245.787" rx=".41" ry=".095" fill="#fff"/><path d="M271.258 463.87l-10.86 7.325s-14.9.757-15.91 1.01c-1.01.252-13.89 5.556-13.89 5.556l-23.232 7.324-18.94 3.788-8.082 2.778-2.778 1.01-2.525 3.536-3.282 6.06-4.293 7.577-2.02 6.566-4.8 23.232-13.89 57.58-5.554 15.656-31.314 61.62-1.263 5.303-.757 10.355-.758 9.09 1.263 19.7 5.81 16.162 7.575 8.586 53.538 32.83-18.183-123.238-1.515-6.566 1.515-2.274 4.294-1.263 381.08-18.183 6.313 1.01 2.778 3.03.758 2.78L533.14 767.42l12.122-4.546 23.233-13.89 4.546-4.545 4.294-10.606 2.778-9.85 1.01-12.626-.253-11.87-8.334-26.263-25.76-95.712-6.818-30.557-8.333-24.496-6.566-12.375-14.144-15.91-18.94-11.11-11.364-4.294-31.062-5.555-19.446-4.798-14.142-7.83-3.03 5.052-2.02 1.766-2.02 19.698-2.274 8.082-8.84 17.172-14.898 17.93-10.355 12.375-10.86 10.1-10.605 1.01-16.163.76-7.323-1.516-13.385-6.566-12.88-12.374-9.344-13.13-13.132-36.62-3.283-14.9z" fill="#3d3d3f" fill-rule="evenodd"/><path style="-inkscape-font-specification:'Sansita One'" d="M418.842 653.348c-2.46.14-4.503 1.11-6.132 2.91-1.577 1.797-2.276 4.275-2.097 7.435.18 3.16 1.073 5.508 2.682 7.043 1.66 1.53 3.72 2.228 6.18 2.09 2.457-.14 4.45-1.068 5.98-2.78 1.582-1.716 2.284-4.154 2.104-7.314-.18-3.16-1.076-5.548-2.69-7.164-1.56-1.62-3.57-2.36-6.028-2.22zm106.705-4.835l-15.474 3.317-.71 9.675c-.163 2.692-.302 4.855-.42 6.488l-.178 3.79c-.054.897-.1 1.51-.133 1.837-1.5-.565-3.193-.796-5.076-.69-7.323.416-13.073 4.482-17.253 12.2-4.185 7.634-5.933 17.53-5.243 29.687.533 9.4 2.068 16.103 4.604 20.105 1.374 2.036 3.083 3.482 5.126 4.342 2.095.857 4.346 1.216 6.752 1.08 2.458-.14 4.488-.905 6.088-2.297 1.605-1.31 2.766-3.042 3.483-5.197.538 2.084 1.548 3.692 3.03 4.828 1.485 1.216 2.986 1.78 4.502 1.695 1.57-.09 2.89-.406 3.96-.955 3.1-1.8 5.064-4.637 5.894-8.505-.943.053-1.738-.552-2.386-1.816-.654-1.345-1.032-2.908-1.133-4.69l-.11-1.945c-.046-.81-.056-1.46-.032-1.95l4.71-71zm-322.36 24.143c-3.503.2-9.205.97-17.105 2.314-.155 1.88-.35 4.45-.585 7.716l-4.71 72.338c6.463 1.096 11.63 1.535 15.5 1.316 24.166-1.372 35.268-19.318 33.31-53.84-.63-11.103-3.204-19.004-7.72-23.707-2.288-2.39-5.085-4.063-8.392-5.014-3.308-.95-6.74-1.326-10.297-1.124zm142.87-6.64l-9.65 81.033 9.023-.513 5.69-55.08 8.59 54.27 9.728-.552 12.435-54.12 2.13 37.56c.318 5.593 1.214 9.81 2.687 12.653.824 1.58 1.917 2.818 3.28 3.716 1.363.898 3.143 1.285 5.34 1.16 2.25-.128 4.166-1.007 5.753-2.64 1.586-1.636 2.622-3.28 3.105-4.935-2.648-2.29-4.303-7.4-4.963-15.33l-4.82-59.967-13.73.78-11.992 46.654-6.21-45.622-16.397.93zm-143.084 15.312l.784-.044c5.596-.318 8.737 5.56 9.422 17.634.868 15.316-.277 27.495-3.437 36.535-1.353 3.898-2.997 6.838-4.93 8.818-1.883 1.977-3.79 3.022-5.727 3.13l-.628.037c-.21.012-.422-.058-.64-.208l4.376-65.736c.257-.095.517-.15.78-.166zm54.956 5.54c-8.004.453-14.08 4.823-18.227 13.107-3.866 7.7-5.452 17.668-4.758 29.904.446 7.86 2.178 13.858 5.194 17.996 1.54 2.19 3.39 3.83 5.55 4.928 2.214 1.094 5.127 1.538 8.736 1.333 3.61-.204 7.01-1.74 10.206-4.603 1.548-1.39 2.764-3.083 3.647-5.084.883-2 1.24-4.5 1.07-7.5-.175-3.08-.956-5.27-2.342-6.575-.76 2.32-2.17 4.27-4.233 5.85-2.014 1.496-4.014 2.3-6.002 2.414-1.988.112-3.57-.49-4.746-1.805-1.13-1.4-1.8-3.96-2.01-7.69-.102-1.78-.107-3.732-.018-5.85 15.9-.903 23.445-8.486 22.635-22.75-.225-3.97-1.32-7.12-3.29-9.446-2.64-3.103-6.447-4.515-11.416-4.233zm25.673-1.457c-2.406.137-4.19.605-5.35 1.403-1.114.714-2.227 1.914-3.338 3.603 1.657 1.45 2.93 5.404 3.82 11.857.503 3.305 1.11 7.984 1.82 14.04.763 6.056 1.785 17.583 3.064 34.583 1.837.953 4.222 1.345 7.15 1.18 3.61-.205 6.95-2.346 10.025-6.423 3.127-4.08 6.208-9.904 9.24-17.475 2.17-5.245 3.97-10.997 5.398-17.256.71-3.21 1.265-6.373 1.665-9.485.4-3.112.52-6.085.36-8.92-.166-2.92-.998-5.11-2.498-6.568-1.5-1.46-3.164-2.14-4.995-2.035-2.98.17-5.25 1.803-6.805 4.9.278 1.203.5 3.264.666 6.18.165 2.918.195 5.76.09 8.53-.322 9.125-1.446 17.522-3.372 25.192-1.418 5.527-2.888 9.23-4.408 11.105-.118-7.636-.358-14.613-.716-20.934-.36-6.32-.868-12.065-1.528-17.23-.613-5.25-1.866-9.286-3.757-12.105-1.896-2.9-4.074-4.282-6.532-4.142zm142.345-8.076l-15.79 3.336-1.564 23.747c-1.21 12.914-1.626 22.653-1.254 29.218.143 2.512.99 4.984 2.546 7.416 1.834 2.742 4.086 4.035 6.753 3.884 5.178-.294 8.405-3.525 9.682-9.695-2.154-.04-3.362-2.37-3.625-6.99-.12-2.107.096-6.185.645-12.232l2.606-38.684zm22.77-1.292l-12.736 3.04-4.497 65.01 15.632-3.325 2.532-37.216c.883-12.163 2.816-18.33 5.798-18.5 1.778-.1 2.8 2.2 3.067 6.9.134 2.35-.208 8.834-1.022 19.45l-.778 11.262c-.216 3.59-.29 6.438-.223 8.548.432 7.617 3.812 11.246 10.14 10.887 2.355-.133 4.375-1.06 6.06-2.78 1.74-1.725 2.794-3.98 3.16-6.766-1.055-.102-1.98-.7-2.777-1.793-.745-1.096-1.173-2.615-1.284-4.56-.114-2.026.073-5.696.56-11.008 1.006-11.847 1.367-20.282 1.082-25.306-.304-5.35-1.308-9.154-3.01-11.415-1.655-2.346-4.312-3.414-7.973-3.207-7.533.428-12.303 4.682-14.31 12.764l.578-11.985zm-190.516 17.03c.89-.05 1.572.438 2.05 1.468.526.946.843 2.35.95 4.215.307 5.43-.516 9.907-2.467 13.432-1.942 3.688-4.77 5.636-8.484 5.847.566-9.463 1.702-16.274 3.408-20.436.683-1.827 1.377-3.004 2.082-3.532.752-.612 1.573-.944 2.462-.994zm245.22-12.817c1.935-.11 3.492.534 4.673 1.93l-2.216 35.858c-.228 4.322-.87 7.812-1.926 10.474-1.003 2.658-2.34 4.035-4.015 4.13-1.884.107-2.966-2.31-3.246-7.254-.41-7.213-.318-14.86.273-22.942.643-8.084 1.395-13.777 2.257-17.078.862-3.3 2.262-5.007 4.197-5.117z" fill="#3d3d3f"/></g><g><path d="M243.512 38.457L231.895 49.82l-9.85 27.78-1.767 12.628-2.02 25.758-10.354-.252 1.768 14.395 4.293 29.293 4.04 15.91 3.283 11.87 8.082 15.15 14.394 23.235-.757-35.355 3.03-17.173 3.788-15.405 5.81-10.86 13.888-16.16 6.82-7.325 10.1-6.818 7.83-2.778 13.384 1.767 5.808 1.264 19.445 15.405 5.81-10.355 9.595-5.81 4.546-.756 8.84 6.312 10.1 6.314 4.042.505 15.152-4.292 3.788 2.02 14.142 9.596 5.81 5.556 6.817 9.092 7.072 8.333 3.788 10.607 3.03 13.132 1.01 12.88-4.04 26.768 22.224-31.062 11.364-37.88 4.04-11.112.506-12.122-.253-11.617-2.777-6.567-9.344-1.01-3.79-30.052-6.06-16.666-12.122-19.95-11.616-9.092-25.507-16.668 5.81 14.9 10.1 28.284-10.1-18.688-16.67-15.404-18.434-12.375-14.394-6.06-4.04-.252 7.576 10.86 3.283 6.06 1.262 8.334-11.616-10.355-16.414-9.596L321.8 9.67l-14.143-.505-29.295-1.01 12.122 11.87 8.08 9.595 1.01 3.788-11.11-3.03-7.07-3.283-7.83-10.607L260.18 30.63l-4.8 9.848-4.797 15.657-4.546 13.637-2.273-5.05z" fill="#3d3d3f" fill-rule="evenodd"/></g></svg>
