<svg xmlns="http://www.w3.org/2000/svg" xmlns:svg="http://www.w3.org/2000/svg" id="svg10071" width="280mm" height="100mm" version="1.1" viewBox="0 0 280 100"><defs id="defs10068"><marker style="overflow:visible" id="Arrow3" markerHeight="7" markerWidth="4.207" orient="auto-start-reverse" preserveAspectRatio="xMidYMid" refX="0" refY="0" viewBox="0 0 4.207 7"><path style="fill:none;stroke:context-stroke;stroke-width:1;stroke-linecap:round" id="arrow3" d="M 3,-3 0,0 3,3" transform="rotate(180,0.125,0)"/></marker></defs><g id="layer1"><rect id="rect324" width="89.038" height="45.481" x="178.605" y="25.688" fill="#507d70" stroke="#424242" stroke-linejoin="round" stroke-width="1.567" rx="2.44" ry="3.119"/><text id="text330" x="197.205" y="54.879" fill="#000" stroke-width=".265" font-family="sans-serif" font-size="10.583" style="line-height:1.25" xml:space="preserve"><tspan id="tspan328" x="197.205" y="54.879" fill="#fff" stroke-width=".265" font-family="Lato" font-weight="bold">Application</tspan></text><text id="text352-6" x="196.378" y="43.785" fill="#000" stroke-width=".265" font-family="sans-serif" font-size="10.583" style="line-height:1.25" xml:space="preserve"><tspan id="tspan350-0" x="196.378" y="43.785" fill="#fff" stroke-width=".265" font-family="Lato" font-weight="bold">Spring Boot</tspan></text><path id="path354-7" fill="none" stroke="#424242" d="m 167.83084,39.566198 -71.51103,0.37784" style="stroke-width:1.615;stroke-dasharray:none;marker-start:url(#Arrow3)"/><path id="path354-7-2" fill="none" stroke="#424242" d="M 168.22088,60.82989 96.709846,61.20773" style="stroke-width:1.615;stroke-dasharray:none;marker-end:url(#Arrow3)"/><ellipse style="fill:#4d342e;fill-opacity:1;stroke:none;stroke-width:.668008;stroke-linejoin:round;stroke-dasharray:5.34408,2.67205" id="path384" cx="39.327" cy="39.288" rx="23.974" ry="33.851"/><ellipse style="fill:#4d342e;fill-opacity:1;stroke:none;stroke-width:.626755;stroke-linejoin:round;stroke-dasharray:5.01404,2.50702" id="path384-3" cx="56.513" cy="40.828" rx="27.175" ry="26.289"/><path style="fill:#4d342e;fill-opacity:1;stroke:none;stroke-width:.165829px;stroke-linecap:butt;stroke-linejoin:miter;stroke-opacity:1" id="path3502" d="m 16.049216,47.091385 5.43884,18.42034 7.43321,14.32094 35.067244,0.26324 L 78.86283,62.523045 62.31295,23.104655 53.19232,8.7124747"/><path style="fill:#507d70;fill-opacity:1;stroke:none;stroke-width:.626755;stroke-linejoin:round;stroke-dasharray:5.01404,2.50702" id="path3632" d="m -6.1327362,-89.567986 a 40.745388,15.931901 0 0 1 -20.6876338,13.8678 40.745388,15.931901 0 0 1 -41.055459,-0.214381 40.745388,15.931901 0 0 1 -19.733153,-14.078867" transform="scale(-1)"/><path style="fill:#4d342e;fill-opacity:1;stroke:none;stroke-width:.626755;stroke-linejoin:round;stroke-dasharray:5.01404,2.50702" id="path3634" d="m 2.256335,83.339958 a 0.56643009,0.91010505 0 0 1 -0.3218623,0.8209 0.56643009,0.91010505 0 0 1 -0.5998036,-0.112019 0.56643009,0.91010505 0 0 1 -0.1960926,-0.917633 l 0.5513284,0.208752 z"/><path style="fill:#fea944;fill-opacity:1;stroke:none;stroke-width:.626755;stroke-linejoin:round;stroke-dasharray:5.01404,2.50702" id="path4173" d="M 58.65014,71.870079 A 10.733296,14.671929 0 0 1 53.200529,84.641146 10.733296,14.671929 0 0 1 42.385553,84.443719 10.733296,14.671929 0 0 1 37.187375,71.478277"/><path style="fill:#fea944;fill-opacity:1;stroke:none;stroke-width:.165829px;stroke-linecap:butt;stroke-linejoin:miter;stroke-opacity:1" id="path4175" d="m 37.57436,72.666575 -0.89949,-6.54361 23.14373,0.48674 -1.26022,5.57013"/><g id="g3506" transform="matrix(0.64370784,0,0,0.61024927,70.03393,-43.210765)"><ellipse style="fill:#feb64d;fill-opacity:1;stroke:none;stroke-width:1.27635;stroke-linejoin:round;stroke-dasharray:10.2107,5.10538" id="path2787" cx="-34.779" cy="160.674" rx="30.395" ry="27.237"/><path style="fill:#feb64d;fill-opacity:1;stroke:none;stroke-width:.264583px;stroke-linecap:butt;stroke-linejoin:miter;stroke-opacity:1" id="path3197" d="m -65.127901,161.93458 0.946928,-38.14136 48.080733,-15.14041 11.4081612,15.55841 0.4981878,36.58902 -35.656983,3.15233"/></g><path style="fill:#4d342e;fill-opacity:1;stroke:none;stroke-width:.109964;stroke-linejoin:round;stroke-dasharray:.879714,.439856" id="path3603" d="m 59.714962,41.051762 a 2.8772435,2.6331925 0 0 1 -2.464612,2.605973 2.8772435,2.6331925 0 0 1 -3.171522,-1.858518 2.8772435,2.6331925 0 0 1 1.554944,-3.139041 2.8772435,2.6331925 0 0 1 3.617517,0.958166"/><path style="fill:#4d342e;fill-opacity:1;stroke:none;stroke-width:.109964;stroke-linejoin:round;stroke-dasharray:.879714,.439856" id="path3603-6" d="m 41.874783,41.096745 a 2.8772435,2.6331925 0 0 1 -2.464612,2.605973 2.8772435,2.6331925 0 0 1 -3.171523,-1.858518 2.8772435,2.6331925 0 0 1 1.554944,-3.139041 2.8772435,2.6331925 0 0 1 3.617518,0.958166"/><text id="text668-5" x="93.328" y="29.097" fill="#424242" font-size="7.056" style="line-height:1.25;font-family:sans-serif;mix-blend-mode:darken;stroke-width:.26458" xml:space="preserve"><tspan id="tspan666-3" x="93.328" y="29.097" fill="#424242" stroke-width=".265" font-family="Lato" font-size="7.056" font-weight="bold">I want to access with</tspan></text><text id="text668-5-93-6" x="91.668" y="54.666" fill="#424242" font-size="7.056" style="line-height:1.25;font-family:sans-serif;mix-blend-mode:darken;stroke-width:.26458" xml:space="preserve"><tspan id="tspan666-3-6-1" x="91.668" y="54.666" fill="#424242" stroke-width=".265" font-family="Lato" font-size="7.056" font-weight="bold">Expected resource or 403</tspan></text><text id="text668-5-9" x="102.439" y="35.588" fill="#424242" font-size="7.056" style="line-height:1.25;font-family:sans-serif;mix-blend-mode:darken;stroke-width:.26458" xml:space="preserve"><tspan id="tspan666-3-1" x="102.439" y="35.588" fill="#424242" stroke-width=".265" font-family="Lato" font-size="7.056" font-weight="bold">these credentials</tspan></text></g></svg>