<svg xmlns="http://www.w3.org/2000/svg" width="64" height="64" version="1.1" viewBox="0 0 64 64"><title>icon_IntelliJIDEA</title><desc>Created with Sketch.</desc><defs><linearGradient id="linearGradient-1" x1="0%" x2="99.799%" y1="50%" y2="50%"><stop offset="26%" stop-color="#F97A12"/><stop offset="46%" stop-color="#B07B58"/><stop offset="72%" stop-color="#577BAE"/><stop offset="91%" stop-color="#1E7CE5"/><stop offset="100%" stop-color="#087CFA"/></linearGradient><linearGradient id="linearGradient-2" x1=".345%" x2="121.182%" y1="34.54%" y2="77.619%"><stop offset="0%" stop-color="#F97A12"/><stop offset="7%" stop-color="#CB7A3E"/><stop offset="15%" stop-color="#9E7B6A"/><stop offset="24%" stop-color="#757B91"/><stop offset="33%" stop-color="#537BB1"/><stop offset="43%" stop-color="#387CCC"/><stop offset="54%" stop-color="#237CE0"/><stop offset="66%" stop-color="#147CEF"/><stop offset="79%" stop-color="#0B7CF7"/><stop offset="100%" stop-color="#087CFA"/></linearGradient><linearGradient id="linearGradient-3" x1="78.169%" x2="30.106%" y1="97.749%" y2="-6.624%"><stop offset="0%" stop-color="#FE315D"/><stop offset="8%" stop-color="#CB417E"/><stop offset="16%" stop-color="#9E4E9B"/><stop offset="25%" stop-color="#755BB4"/><stop offset="34%" stop-color="#5365CA"/><stop offset="44%" stop-color="#386DDB"/><stop offset="54%" stop-color="#2374E9"/><stop offset="66%" stop-color="#1478F3"/><stop offset="79%" stop-color="#0B7BF8"/><stop offset="100%" stop-color="#087CFA"/></linearGradient><linearGradient id="linearGradient-4" x1="20%" x2="103.422%" y1="24.087%" y2="132.676%"><stop offset="0%" stop-color="#FE315D"/><stop offset="4%" stop-color="#F63462"/><stop offset="10%" stop-color="#DF3A71"/><stop offset="17%" stop-color="#C24383"/><stop offset="29%" stop-color="#AD4A91"/><stop offset="55%" stop-color="#755BB4"/><stop offset="92%" stop-color="#1D76ED"/><stop offset="100%" stop-color="#087CFA"/></linearGradient></defs><g id="Page-1" fill="none" fill-rule="evenodd" stroke="none" stroke-width="1"><g id="icon_IntelliJIDEA"><polygon id="Shape" fill="url(#linearGradient-1)" points="16.2 49.9 .7 37.7 8.4 23.4 30.5 32"/><polygon id="Shape" fill="url(#linearGradient-2)" points="64 17.1 62.8 54.1 38.2 64 23.4 54.4 45 32 35.6 11.2 44.1 1"/><polygon id="Shape" fill="url(#linearGradient-3)" points="64 17.1 44.5 40.1 35.6 11.2 44.1 1"/><polygon id="Shape" fill="url(#linearGradient-4)" points="30.8 53.1 5.2 62.4 9.3 48 14.6 30.2 0 25.3 9.3 0 29.3 2.4 49.1 25"/><g id="Group" transform="translate(12.000000, 12.000000)"><rect id="Rectangle-path" width="40" height="40" x="0" y="0" fill="#000"/><g fill="#FFF" transform="translate(3.000000, 5.000000)"><rect id="Rectangle-path" width="15" height="2.5" x=".8" y="27.5"/><polygon id="Shape" points="11.5 3.2 11.5 .2 3.3 .2 3.3 3.2 5.6 3.2 5.6 13.7 3.3 13.7 3.3 16.8 11.5 16.8 11.5 13.7 9.2 13.7 9.2 3.2"/><path id="Shape" d="M19.5,17 C18.3583378,17.051496 17.2224408,16.8105481 16.2,16.3 C15.3634914,15.8385062 14.6180006,15.2285591 14,14.5 L16.3,11.9 C16.715318,12.3562825 17.1855663,12.7593525 17.7,13.1 C18.1840325,13.3837809 18.7393686,13.5226149 19.3,13.5 C19.9165317,13.5471198 20.516173,13.2847767 20.9,12.8 C21.3631669,12.2034855 21.5781151,11.4511665 21.5,10.7 L21.5,0 L25.2,0 L25.2,10.8 C25.2379472,11.6844839 25.1020489,12.5678232 24.8,13.4 C24.5361447,14.2442579 24.0530479,15.0034101 23.4,15.6 C22.2666872,16.4413916 20.9096908,16.9285185 19.5,17"/></g></g></g></g></svg>