<?xml version="1.0" standalone="no"?>
<!DOCTYPE svg PUBLIC "-//W3C//DTD SVG 20010904//EN" "http://www.w3.org/TR/2001/REC-SVG-20010904/DTD/svg10.dtd">
<svg version="1.0" xmlns="http://www.w3.org/2000/svg" width="320" height="266.667" viewBox="0 0 240 200">
    <path d="M46.152 18.128l-.599 62.47 44.194 1.05-.3 7.94-43.896-.516.106 28.072 6.78 18.644 8.474 13.877 15.784 18.22 20.974 16.42 22.67 13.665 24.576-14.3 22.034-17.903 11.547-14.3 7.627-9.429 5.614-14.407 3.496-11.546.424-26.377h-44.492l.106-8.793 44.174-.318V18.521L121.61 1.572z"
          stroke="#424242" stroke-width=".75" fill="#424242"/>
    <g transform="translate(.518 -1.244)">
        <ellipse ry="27.247" rx="27.758" cy="87.32" cx="120.122" fill="#fff" stroke="#424242" stroke-width=".727"/>
        <ellipse ry="7.425" rx="8.114" cy="78.325" cx="119.458" fill="#424242" fill-opacity=".941" stroke="#424242"
                 stroke-width=".73"/>
        <path d="M117.62 85.406l.213 3.602 1.8 1.906-2.648 2.013 2.119 2.543-2.33 3.283 3.813 2.755 2.542-2.543-.106-13.241-4.449-2.754"
              stroke="#424242" stroke-width=".75" fill="#424242"/>
        <ellipse ry="2.436" rx="2.383" cy="75.819" cx="120.057" fill="#fff"/>
    </g>
</svg>