<?xml version="1.0" standalone="no"?>
<!DOCTYPE svg PUBLIC "-//W3C//DTD SVG 20010904//EN" "http://www.w3.org/TR/2001/REC-SVG-20010904/DTD/svg10.dtd">
<svg version="1.0" xmlns="http://www.w3.org/2000/svg" width="320" height="266.667" viewBox="0 0 240 200">
    <path d="M38.379 18.17l.112 53.922 8.393-2.724 12.87-3.292 11.303-1.59 27.754-1.476 33.686.568 23.054.795 22.494 2.61 10.408 1.363 8.84 3.52-.335-54.491-22.942-4.655-31.783-2.157-23.95-.908-22.27 1.135-25.068 1.817-23.837 3.292z"
          fill="#424242" stroke-width=".798"/>
    <path d="M38.603 76.179l22.27-3.973 26.3-2.384 22.046-1.249 31.783.681 24.62 1.93 31 4.881-.112 48.36-50.024 4.996-31.671.794-30.888-.908-28.985-3.519-16.227-2.61z"
          fill="#424242" stroke-width=".798"/>
    <path d="M39.05 128.172l28.202 5.109 27.754 2.724h35.476l31.895-2.157s6.603.568 20.48-2.497l13.877-3.065.224 50.971-65.469 6.13-17.346.568-22.382-.568-23.614-1.703-22.494-3.746-7.162-1.362z"
          fill="#424242" stroke-width=".798"/>
</svg>