<svg xmlns="http://www.w3.org/2000/svg" height="100" viewBox="0 0 100 100" width="100"><g transform="matrix(0.05818784,0,0,0.06231942,-8.558556,-8.8466566)"><path d="m 784.594,1775.93 c -5.73898,0 -12.1099,-0.5988 -19.1551,-1.8862 l 2.87481,-31.6252 28.3902,-0.01 c 4.71378,-1.3146 8.4567,-3.4158 11.3539,-6.0307 4.96181,-4.48 7.82599,-10.6937 9.00119,-17.1177 0.39331,-2.152 0.58228,-4.5296 0.58228,-7.0359 0,-17.1697 -0.15354,-33.2055 -0.35669,-54.7264 -0.22913,-24.1677 -0.51614,-54.1961 -0.75354,-88.6217 -258.799,46.9831 -319.217,-134.775 -321.697,-142.595 -41.1803,-104.091 -97.8119,-130.628 -97.9761,-130.707 l -2.1248,-1.1882 c -130.439,-89.1426 15.228,-87.2942 15.6414,-87.293 l 1.00039,0 c 102.02,7.1812 156.354,101.244 159.315,106.5 l 0.0106,-0.01 c 31.011,53.1331 69.1654,79.3335 107.076,90.1572 54.9922,15.6992 110.447,-0.1819 143.204,-13.7232 4.5437,-26.8583 12.0284,-50.0811 21.3697,-69.7536 6.2941,-13.2543 13.4528,-24.9425 21.1512,-35.0906 -98.8288,-14.0232 -197.87,-42.6567 -275.24,-107.786 -85.8449,-72.2658 -144.027,-188.34796 -144.027,-377.12396 l 0.0626,0 c 0.008,-52.7882 9.14528,-100.878 25.8189,-144.331 16.526,-43.0689 40.4764,-81.6556 70.3004,-115.817 -5.70591,-16.2142 -13.6299,-44.4721 -16.1315,-81.8812 -3.05906,-45.7512 1.93228,-105.447 29.002,-173.888 l 0.6248,-1.24961 c 0.0165,-0.0331 11.7685,-10.0417 28.3807,-10.8827 10.9583,-0.55394 27.4973,0.0213 49.8189,4.53426 43.4717,8.78977 110.06,32.8961 201.989,94.2686 36.3201,-9.76418 73.806,-17.1839 111.829,-22.298 41.1414,-5.53229 83.03276,-8.37048 124.86906,-8.55709 l 0.1252,0 c 41.7898,0.18661 83.6339,3.02599 124.749,8.55473 38.041,5.11654 75.5623,12.5433 111.95,22.3063 184.793,-123.404 269.951,-96.1867 270.202,-96.1135 l 7.4445,2.20748 2.8677,7.22953 c 27.1748,68.5312 32.2134,128.17 29.1815,173.825 -2.4839,37.4008 -10.3772,65.6469 -16.0595,81.8741 29.8063,34.076 53.6823,72.6142 70.1717,115.667 16.7091,43.6276 25.8213,91.7989 25.8213,144.551 0,189.299 -58.2685,305.32696 -144.281,377.33496 -77.426,64.8213 -176.587,93.0804 -275.626,106.865 11.5807,15.1465 21.991,33.7831 30.1193,55.9725 10.9406,29.8713 17.798,66.2575 17.798,109.27 0,76.7469 -0.567,156.597 -0.9414,209.467 -0.137,19.4008 -0.2409,33.8929 -0.2409,53.0469 l -0.063,0 c 0,2.393 0.2468,4.9595 0.7618,7.63 1.2331,6.3945 4.0642,12.5102 8.9008,16.8461 2.6504,2.3763 6.0142,4.3145 10.1882,5.6043 l 30.0059,-0.01 3,31.6252 c -7.1091,1.3701 -13.8307,2.0067 -20.1626,2.0102 -6.1323,0 -11.7803,-0.6118 -16.9677,-1.7527 l -538.68903,0.1027 c -5.05512,1.0654 -10.5343,1.6418 -16.461,1.6418 z" fill="#ffffff" /></g></svg>