<?xml version="1.0" encoding="UTF-8"?>
<svg width="180" height="60" version="1.1" viewBox="0 0 47.626 15.875" xmlns="http://www.w3.org/2000/svg">
 <path d="m34.219 8.5738q-0.023 0.022-0.045 0.04-0.018 0.013-0.053 0.013-0.044 0-0.12-0.058-0.074-0.06-0.202-0.132-0.128-0.07-0.322-0.128-0.19-0.062-0.463-0.062-0.38 0-0.674 0.137-0.291 0.132-0.494 0.384-0.203 0.251-0.31 0.608-0.1 0.358-0.1 0.803 0 0.463 0.106 0.82 0.11 0.357 0.308 0.604 0.199 0.243 0.48 0.37 0.283 0.13 0.627 0.13 0.318 0 0.53-0.076 0.215-0.075 0.352-0.164 0.14-0.088 0.22-0.163t0.133-0.075 0.088 0.044l0.11 0.141q-0.101 0.133-0.256 0.247-0.154 0.115-0.348 0.2-0.194 0.083-0.423 0.127-0.225 0.048-0.472 0.048-0.42 0-0.767-0.15-0.344-0.154-0.596-0.44-0.247-0.292-0.388-0.71-0.136-0.42-0.136-0.953 0-0.503 0.132-0.917 0.132-0.415 0.388-0.715t0.622-0.463q0.37-0.167 0.846-0.167 0.428 0 0.759 0.136 0.33 0.137 0.577 0.37zm2.852-0.657q0.472 0 0.842 0.163 0.375 0.16 0.63 0.454 0.256 0.296 0.389 0.714 0.136 0.415 0.136 0.93 0 0.517-0.136 0.931-0.133 0.415-0.388 0.71-0.256 0.296-0.631 0.455-0.37 0.158-0.842 0.158t-0.847-0.158q-0.37-0.16-0.63-0.455-0.256-0.295-0.393-0.71-0.132-0.414-0.132-0.93 0-0.516 0.132-0.93 0.137-0.42 0.392-0.715 0.26-0.295 0.63-0.454 0.376-0.163 0.848-0.163zm0 4.185q0.392 0 0.683-0.133 0.296-0.136 0.49-0.388 0.198-0.25 0.295-0.604 0.097-0.357 0.097-0.798 0-0.437-0.097-0.794t-0.295-0.608q-0.194-0.256-0.49-0.393-0.29-0.137-0.683-0.137t-0.688 0.137q-0.291 0.137-0.49 0.393-0.194 0.251-0.295 0.608-0.097 0.357-0.097 0.794 0 0.44 0.097 0.798 0.1 0.353 0.295 0.604 0.199 0.252 0.49 0.388 0.295 0.133 0.688 0.133zm3.188 0.273v-4.388h0.226q0.075 0 0.106 0.031 0.03 0.031 0.04 0.106l0.03 0.922q0.102-0.27 0.23-0.477 0.132-0.21 0.3-0.357 0.17-0.145 0.378-0.22 0.212-0.08 0.468-0.08 0.137 0 0.269 0.027 0.132 0.022 0.234 0.084l-0.036 0.29q-0.022 0.071-0.083 0.071-0.053 0-0.164-0.03-0.105-0.032-0.282-0.032-0.256 0-0.454 0.08t-0.353 0.234q-0.154 0.15-0.273 0.38-0.115 0.224-0.212 0.52v2.84zm3.119 1.552v-5.94h0.233q0.11 0 0.128 0.11l0.04 0.68q0.29-0.397 0.683-0.63 0.393-0.235 0.878-0.235 0.807 0 1.257 0.56 0.454 0.56 0.454 1.68 0 0.481-0.128 0.9-0.123 0.415-0.37 0.723-0.243 0.304-0.6 0.48-0.353 0.177-0.816 0.177-0.445 0-0.772-0.163-0.326-0.163-0.564-0.48v2.138zm1.843-5.675q-0.437 0-0.79 0.225-0.352 0.225-0.63 0.626v2.315q0.25 0.38 0.556 0.534 0.304 0.15 0.7 0.15 0.389 0 0.68-0.142 0.29-0.14 0.485-0.396 0.198-0.26 0.295-0.618 0.102-0.36 0.102-0.794 0-0.979-0.362-1.437-0.361-0.463-1.036-0.463z"/>
 <path d="m28.661 2.8956 0.74-0.279 1.502-0.384 1.506-0.12 0.969 0.048 0.338 0.46 0.328 0.466 0.287 0.238 0.598 0.21 0.444-0.02 0.474-0.41 0.233 0.031 0.194-0.172-0.106 0.292 0.047 0.171-0.254 0.516 0.045 0.12 0.462 0.29 0.708 0.181 1.058 7e-3 0.29 0.195 0.43 0.564 0.63 1.055 0.512 1.115s0.268 0.53 0.135 0.64c-0.133 0.107-0.156 1e-3 -0.156 1e-3l-0.176-0.08-0.212-0.043-0.175-0.147-0.175-0.146s-0.49-0.407-0.545-0.427-0.198-0.346-0.198-0.346l-0.578-0.62-0.398-0.278-0.992-0.18-0.535-0.06-0.912-0.282-0.62 0.592-0.226 0.445-0.072 0.231-0.203 0.11-0.497-0.068-0.64-0.463 0.293-0.406 0.709-0.633 0.127-0.305-0.765-0.506-0.745-0.612-0.567-0.253-0.147-0.31-0.813-0.05-0.966 3e-3 -0.59-0.08-0.457-0.12-0.164-0.06" stroke="#000" stroke-width=".186"/>
 <g transform="scale(.86849 1.1514)" stroke-linecap="round" stroke-linejoin="round" stroke-width=".55972" aria-label="AUTOMA">
  <path d="m6.749 10.574h-0.97765q-0.16419 0-0.26494-0.07463-0.10075-0.07836-0.15299-0.19777l-0.32091-0.9478h-2.0673l-0.32091 0.9478q-0.041047 0.10448-0.14926 0.19031-0.10448 0.08209-0.2612 0.08209h-0.98512l2.1046-5.4368h1.2911zm-3.4927-2.0784h1.4851l-0.50002-1.4889q-0.055972-0.1418-0.11941-0.3321-0.063436-0.19404-0.12687-0.41793-0.059704 0.22762-0.12314 0.42166-0.059704 0.19404-0.11568 0.33584z"/>
  <path d="m9.305 9.5778q0.25374 0 0.45151-0.082093 0.2015-0.085824 0.33957-0.24255 0.13807-0.15672 0.20896-0.38061 0.07463-0.22762 0.07463-0.51495v-3.2203h1.2612v3.2203q0 0.50002-0.16419 0.91795-0.16045 0.41793-0.46271 0.72018-0.30225 0.30225-0.7351 0.47017-0.43285 0.16792-0.97392 0.16792-0.5448 0-0.97765-0.16792-0.43285-0.16792-0.73511-0.47017-0.30225-0.30225-0.46271-0.72018t-0.16045-0.91795v-3.2203h1.2612v3.2166q0 0.28733 0.070899 0.51495 0.07463 0.22389 0.2127 0.38434 0.13807 0.15672 0.33584 0.24255 0.2015 0.082093 0.45524 0.082093z"/>
  <path d="m16.533 5.1373v1h-1.5299v4.4368h-1.2612v-4.4368h-1.5299v-1z"/>
  <path d="m22.38 7.8539q0 0.58958-0.20523 1.0971-0.2015 0.50748-0.57092 0.88437-0.36942 0.37315-0.89183 0.58585-0.51868 0.2127-1.153 0.2127t-1.1568-0.2127q-0.52241-0.2127-0.89556-0.58585-0.36942-0.37688-0.57465-0.88437-0.2015-0.50748-0.2015-1.0971 0-0.58958 0.2015-1.0971 0.20523-0.50748 0.57465-0.88063 0.37315-0.37315 0.89556-0.58585t1.1568-0.2127 1.153 0.21643q0.52241 0.2127 0.89183 0.58585 0.36942 0.37315 0.57092 0.88063 0.20523 0.50748 0.20523 1.0933zm-1.2911 0q0-0.403-0.10448-0.72391-0.10448-0.32464-0.30225-0.54853-0.19404-0.22389-0.47763-0.3433t-0.64555-0.11941q-0.36569 0-0.65301 0.11941-0.28359 0.11941-0.48136 0.3433-0.19404 0.22389-0.29852 0.54853-0.10448 0.32091-0.10448 0.72391 0 0.40673 0.10448 0.73137 0.10448 0.32091 0.29852 0.5448 0.19777 0.22389 0.48136 0.3433 0.28733 0.11568 0.65301 0.11568 0.36196 0 0.64555-0.11568 0.28359-0.11941 0.47763-0.3433 0.19777-0.22389 0.30225-0.5448 0.10448-0.32464 0.10448-0.73137z"/>
  <path d="m25.903 8.089q0.07463 0.1418 0.1418 0.29479 0.0709 0.15299 0.13433 0.31345 0.06344-0.16419 0.1306-0.32091 0.0709-0.15672 0.14926-0.29852l1.3956-2.7464q0.03732-0.070899 0.07463-0.10821 0.04105-0.041047 0.08956-0.059704t0.10821-0.022389q0.06344-0.00373 0.14553-0.00373h0.96273v5.4368h-1.112v-3.127q0-0.22762 0.02239-0.49256l-1.4404 2.7949q-0.06717 0.1306-0.18284 0.19777-0.11194 0.067167-0.25747 0.067167h-0.17165q-0.14553 0-0.2612-0.067167-0.11194-0.067167-0.17911-0.19777l-1.4478-2.7986q0.01493 0.1306 0.02239 0.2612 0.0075 0.12687 0.0075 0.23508v3.127h-1.112v-5.4368h0.96273q0.08209 0 0.1418 0.00373 0.06344 0.00373 0.11194 0.022389 0.04851 0.018658 0.08582 0.059704 0.04105 0.037315 0.07836 0.10821l1.3993 2.7576z"/>
  <path d="m35.164 10.574h-0.97765q-0.16419 0-0.26494-0.07463-0.10075-0.07836-0.15299-0.19777l-0.32091-0.9478h-2.0673l-0.32091 0.9478q-0.04105 0.10448-0.14926 0.19031-0.10448 0.08209-0.2612 0.08209h-0.98512l2.1046-5.4368h1.2911zm-3.4927-2.0784h1.4851l-0.50002-1.4889q-0.05597-0.1418-0.11941-0.3321-0.06344-0.19404-0.12687-0.41793-0.0597 0.22762-0.12314 0.42166-0.0597 0.19404-0.11568 0.33584z"/>
 </g>
</svg>
