<svg xmlns="http://www.w3.org/2000/svg" width="150" height="60" viewBox="0 0 39.688 15.875"><path d="M26.674 8.624q-.023.022-.045.04-.018.013-.053.013-.044 0-.12-.058-.074-.06-.202-.132-.128-.07-.322-.128-.19-.062-.463-.062-.38 0-.674.137-.291.132-.494.384-.203.251-.31.608-.1.358-.1.803 0 .463.106.82.11.357.308.604.199.243.48.37.283.13.627.13.318 0 .53-.076.215-.075.352-.164.14-.088.22-.163.08-.075.133-.075.053 0 .088.044l.11.141q-.101.133-.256.247-.154.115-.348.2-.194.083-.423.127-.225.048-.472.048-.42 0-.767-.15-.344-.154-.596-.44-.247-.292-.388-.71-.136-.42-.136-.953 0-.503.132-.917.132-.415.388-.715t.622-.463q.37-.167.846-.167.428 0 .759.136.33.137.577.37zm2.852-.657q.472 0 .842.163.375.16.63.454.256.296.389.714.136.415.136.93 0 .517-.136.931-.133.415-.388.71-.256.296-.631.455-.37.158-.842.158t-.847-.158q-.37-.16-.63-.455-.256-.295-.393-.71-.132-.414-.132-.93t.132-.93q.137-.42.392-.715.26-.295.63-.454.376-.163.848-.163zm0 4.185q.392 0 .683-.133.296-.136.49-.388.198-.25.295-.604.097-.357.097-.798 0-.437-.097-.794-.097-.357-.295-.608-.194-.256-.49-.393-.29-.137-.683-.137-.393 0-.688.137-.291.137-.49.393-.194.251-.295.608-.097.357-.097.794 0 .44.097.798.1.353.295.604.199.252.49.388.295.133.688.133zm3.188.273V8.037h.226q.075 0 .106.031.03.031.04.106l.03.922q.102-.27.23-.477.132-.21.3-.357.17-.145.378-.22.212-.08.468-.08.137 0 .269.027.132.022.234.084l-.036.29q-.022.071-.083.071-.053 0-.164-.03-.105-.032-.282-.032-.256 0-.454.08t-.353.234q-.154.15-.273.38-.115.224-.212.52v2.84zm3.119 1.552v-5.94h.233q.11 0 .128.11l.04.68q.29-.397.683-.63.393-.235.878-.235.807 0 1.257.56.454.56.454 1.68 0 .481-.128.9-.123.415-.37.723-.243.304-.6.48-.353.177-.816.177-.445 0-.772-.163-.326-.163-.564-.48v2.138zm1.843-5.675q-.437 0-.79.225-.352.225-.63.626v2.315q.25.38.556.534.304.15.7.15.389 0 .68-.142.29-.14.485-.396.198-.26.295-.618.102-.36.102-.794 0-.979-.362-1.437-.361-.463-1.036-.463z" style="-inkscape-font-specification:'Lato Light'"/><path d="M21.3 2.822l.74-.279 1.502-.384 1.506-.12.969.048.338.46.328.466.287.238.598.21.444-.02.474-.41.233.031.194-.172-.106.292.047.171-.254.516.045.12.462.29.708.181 1.058.007.29.195.43.564.63 1.055.512 1.115s.268.53.135.64c-.133.107-.156.001-.156.001l-.176-.08-.212-.043-.175-.147-.175-.146s-.49-.407-.545-.427c-.055-.02-.198-.346-.198-.346l-.578-.62-.398-.278-.992-.18-.535-.06-.912-.282-.62.592-.226.445-.072.231-.203.11-.497-.068-.64-.463.293-.406.709-.633.127-.305-.765-.506-.745-.612-.567-.253-.147-.31-.813-.05-.966.003-.59-.08-.457-.12-.164-.06" stroke="#000" stroke-width=".186"/><g aria-label="FAIR" style="line-height:1.25" font-weight="900" font-size="10.583" font-family="Lato" letter-spacing="0" word-spacing="0" stroke-width=".265"><path d="M6.13 4.67v1.376H2.964V8H5.6V9.38H2.965v3h-1.8V4.67zM13.435 12.38H12.05q-.233 0-.376-.105-.143-.111-.217-.28l-.455-1.345H8.07l-.455 1.344q-.059.148-.212.27-.148.117-.37.117H5.635L8.62 4.67h1.83zM8.482 9.434h2.107l-.71-2.111Q9.8 7.12 9.71 6.85q-.09-.275-.18-.593-.084.323-.174.598-.085.275-.164.476zM15.843 12.38h-1.8V4.67h1.8zM19.119 9.528v2.853H17.33V4.67h2.508q.836 0 1.424.174.592.17.963.476.376.307.545.725.17.418.17.91 0 .376-.101.71-.1.333-.302.619-.196.28-.487.502-.286.223-.661.366.18.09.333.227.154.132.275.318l1.64 2.683h-1.619q-.45 0-.645-.34l-1.28-2.238q-.09-.142-.202-.206-.11-.069-.317-.069zm0-1.233h.72q.364 0 .618-.09.26-.095.424-.259.164-.164.238-.38.074-.223.074-.477 0-.508-.333-.794-.329-.286-1.022-.286h-.72z" style="-inkscape-font-specification:'Lato Heavy'"/></g></svg>