<svg xmlns="http://www.w3.org/2000/svg" viewBox="0 0 1333.333 1188"><path d="M160.635 280.19l1.723 22.83 79.057-.268 1.812 7.265-92.724 1.619zM250.543 388.594l-1.6 5.909 82.845-.543 3.28-5.903zM483.884 369.177l20.03-58.867 81.715-4.93-96.505-3.55zM304.933 799.471l1.287 52.036 243.536 8.535-18.653 306.52 506.64 8.817-21.312-80.282-13.76 68.173-447.627-7.538 4.34-308.875-250.733.302z" fill="#413c4e"/><path d="M162.358 303.02L144.743 103.92l124.361-2.001-34.411 63.547 15.85 223.129 84.524-.537 5.289-19.179 143.528.3-6.703-201.125 5.663-65.516.194-3.742 102.173-.075.418 206.66-96.505-3.55-6.263-187.113-6.202 53.633-238.93-4.822-3.813 3.801 7.499 135.423z" fill="#7e57c2" stroke="#512da8"/><path d="M144.743 103.919l32.874-51.31 400.639-2.171 6.955 48.282-102.173.075-5.857 69.258-242.488-2.588 34.411-63.547z" fill="#9575cd" stroke="#512da8"/><path d="M483.038 98.795l6.086 203.035-5.24 67.347-7.225-200.827z" fill="#512da8" stroke="#512da8"/><path d="M721.682 49.662l395.362 3.372 49.357 49.828-61.646 1.205 62.03 60.65-229.661 1.505-47.252-61.178-136.745-.412z" fill="#9575cd" stroke="#512da8"/><path d="M753.127 104.632l136.745.412-20.48 192.88-129.314 1.036zM937.124 166.222l229.661-1.506-31.544 223.156-222.192-4.788zM1166.4 102.862l-7.632 53.993-54.013-52.788z" fill="#7e57c2" stroke="#512da8"/><path d="M721.682 49.662l31.445 54.97-13.05 194.328-32.338-68.365zM889.872 105.044l47.252 61.178-24.075 216.862-43.657-85.16z" fill="#512da8" stroke="#512da8"/><path d="M340.356 368.878l662.712 11.292 95.413 167.041-121.175-3.056 103.796 264.529-516.362-7.132 2.23-256.935-282.998-7.463z" fill="#ec407a"/><path d="M283.972 537.154l24.68 310.005 250.732-.302-4.34 308.875 447.627 7.538 78.43-354.586-516.361-7.132 2.23-256.935z" fill="#c2185b"/><path d="M1098.481 547.211l-37.961 205.4-83.214-208.456z" fill="#c2185b" stroke="#c2185b"/><g aria-label="Serveur" style="line-height:1.25" font-weight="300" font-size="53.333" font-family="Lato" fill="#fff"><path d="M296.96 231.29q-.24.454-.693.454-.347 0-.907-.48-.533-.507-1.467-1.094-.933-.613-2.346-1.12-1.387-.506-3.44-.506-2.054 0-3.627.586-1.547.587-2.613 1.6-1.04 1.014-1.6 2.347-.534 1.333-.534 2.8 0 1.92.8 3.173.827 1.254 2.16 2.134 1.334.88 3.014 1.493 1.706.587 3.493 1.173 1.787.587 3.467 1.307 1.706.693 3.04 1.76 1.333 1.067 2.133 2.64.827 1.547.827 3.867 0 2.373-.827 4.48-.8 2.08-2.347 3.626-1.546 1.547-3.786 2.454-2.24.88-5.12.88-3.734 0-6.427-1.307-2.693-1.333-4.72-3.627l.747-1.173q.32-.4.746-.4.24 0 .614.32.373.32.906.8.534.453 1.28 1.013.747.534 1.734 1.014.986.453 2.266.773t2.907.32q2.24 0 4-.667 1.76-.693 2.96-1.866 1.227-1.174 1.867-2.774.64-1.626.64-3.466 0-2-.827-3.28-.8-1.307-2.133-2.16-1.334-.88-3.04-1.467-1.68-.587-3.467-1.147-1.787-.56-3.493-1.253-1.68-.693-3.014-1.76-1.333-1.093-2.16-2.693-.8-1.627-.8-4.054 0-1.893.72-3.653t2.107-3.093q1.387-1.36 3.413-2.16 2.054-.827 4.667-.827 2.933 0 5.253.933 2.347.934 4.267 2.854zM316.042 237.477q2.24 0 4.16.773 1.92.774 3.334 2.267 1.413 1.467 2.213 3.627.827 2.16.827 4.96 0 .586-.16.8-.16.213-.534.213h-19.306v.507q0 2.986.693 5.253t1.973 3.813q1.28 1.52 3.094 2.294 1.813.773 4.053.773 2 0 3.467-.427 1.466-.453 2.453-.986 1.013-.56 1.6-.987.587-.453.853-.453.347 0 .534.266l.693.854q-.64.8-1.707 1.493-1.04.693-2.346 1.2-1.28.48-2.774.773-1.466.294-2.96.294-2.72 0-4.96-.934-2.24-.96-3.84-2.773-1.6-1.813-2.48-4.427-.853-2.64-.853-6.026 0-2.854.8-5.254.827-2.426 2.347-4.16 1.546-1.76 3.76-2.746 2.24-.987 5.066-.987zm.027 1.893q-2.053 0-3.68.64-1.627.64-2.827 1.84-1.173 1.2-1.92 2.88-.72 1.68-.96 3.76h17.6q0-2.133-.613-3.813-.587-1.707-1.68-2.88-1.093-1.173-2.613-1.787-1.494-.64-3.307-.64zM333.482 264.437v-26.533h1.36q.453 0 .64.186.186.187.24.64l.186 5.574q.614-1.627 1.387-2.88.8-1.28 1.813-2.16 1.04-.88 2.294-1.334 1.28-.48 2.826-.48.827 0 1.627.16.8.134 1.413.507l-.213 1.76q-.133.427-.507.427-.32 0-.986-.187-.64-.187-1.707-.187-1.547 0-2.747.48t-2.133 1.414q-.933.906-1.653 2.293-.694 1.36-1.28 3.147v17.173zM362.442 264.437h-2.24l-11.2-26.533h2q.374 0 .614.213.24.187.32.427l8.773 20.933q.4 1.147.64 2.293.24-1.146.667-2.293l8.8-20.933q.133-.294.346-.454.24-.186.56-.186h1.92zM388.855 237.477q2.24 0 4.16.773 1.92.774 3.333 2.267 1.414 1.467 2.214 3.627.826 2.16.826 4.96 0 .586-.16.8-.16.213-.533.213h-19.307v.507q0 2.986.694 5.253.693 2.267 1.973 3.813 1.28 1.52 3.093 2.294 1.814.773 4.054.773 2 0 3.466-.427 1.467-.453 2.454-.986 1.013-.56 1.6-.987.586-.453.853-.453.347 0 .533.266l.694.854q-.64.8-1.707 1.493-1.04.693-2.347 1.2-1.28.48-2.773.773-1.467.294-2.96.294-2.72 0-4.96-.934-2.24-.96-3.84-2.773-1.6-1.813-2.48-4.427-.853-2.64-.853-6.026 0-2.854.8-5.254.826-2.426 2.346-4.16 1.547-1.76 3.76-2.746 2.24-.987 5.067-.987zm.027 1.893q-2.054 0-3.68.64-1.627.64-2.827 1.84-1.173 1.2-1.92 2.88-.72 1.68-.96 3.76h17.6q0-2.133-.613-3.813-.587-1.707-1.68-2.88-1.094-1.173-2.614-1.787-1.493-.64-3.306-.64zM408.56 237.904v16.96q0 3.733 1.707 5.866 1.707 2.107 5.2 2.107 2.587 0 4.827-1.307 2.24-1.333 4.027-3.68v-19.946h2.56v26.533h-1.414q-.666 0-.773-.693l-.24-3.947q-1.84 2.293-4.267 3.68-2.4 1.387-5.36 1.387-2.213 0-3.866-.694-1.654-.693-2.747-2-1.093-1.306-1.653-3.146-.56-1.84-.56-4.16v-16.96zM435.565 264.437v-26.533h1.36q.453 0 .64.186.187.187.24.64l.187 5.574q.613-1.627 1.386-2.88.8-1.28 1.814-2.16 1.04-.88 2.293-1.334 1.28-.48 2.827-.48.826 0 1.626.16.8.134 1.414.507l-.214 1.76q-.133.427-.506.427-.32 0-.987-.187-.64-.187-1.707-.187-1.546 0-2.746.48t-2.134 1.414q-.933.906-1.653 2.293-.693 1.36-1.28 3.147v17.173z" style="-inkscape-font-specification:'Lato Light'"/></g><g aria-label="Serveur" style="line-height:1.25" font-weight="300" font-size="53.333" font-family="Lato" fill="#fff"><path d="M982.997 239.182q-.268.437-.72.41-.346-.023-.875-.537-.5-.539-1.396-1.182-.893-.67-2.272-1.265-1.352-.592-3.402-.72-2.049-.128-3.656.359-1.58.489-2.708 1.434-1.101.946-1.743 2.242-.616 1.297-.707 2.761-.12 1.916.6 3.217.747 1.303 2.023 2.264 1.275.962 2.914 1.679 1.667.692 3.413 1.389 1.747.697 3.378 1.52 1.66.799 2.925 1.947 1.264 1.148 1.964 2.768.728 1.595.584 3.91-.149 2.37-1.105 4.42-.928 2.026-2.569 3.473-1.64 1.447-3.932 2.212-2.29.739-5.165.56-3.726-.234-6.333-1.706-2.604-1.5-4.484-3.915l.818-1.124q.345-.38.77-.353.24.015.593.358.352.343.855.855.504.486 1.214 1.091.712.58 1.667 1.12.956.514 2.214.913 1.257.4 2.88.501 2.236.14 4.034-.415 1.8-.583 3.071-1.679 1.298-1.094 2.036-2.651.74-1.584.856-3.42.124-1.996-.62-3.325-.718-1.354-1.995-2.29-1.276-.96-2.942-1.653-1.64-.69-3.389-1.36-1.748-.671-3.408-1.47-1.634-.796-2.898-1.944-1.262-1.175-1.987-2.823-.697-1.674-.546-4.096.119-1.89.947-3.6.828-1.712 2.296-2.957 1.469-1.27 3.541-1.942 2.101-.697 4.71-.534 2.927.183 5.184 1.26 2.284 1.077 4.08 3.114zM1001.656 246.548q2.236.14 4.104 1.031 1.868.892 3.185 2.47 1.319 1.553 1.983 3.759.69 2.207.515 5.001-.037.586-.21.789-.173.203-.545.18l-19.27-1.206-.03.506q-.187 2.98.363 5.286.55 2.306 1.732 3.93 1.182 1.596 2.944 2.481 1.761.885 3.997 1.025 1.996.125 3.486-.21 1.492-.36 2.51-.83 1.047-.496 1.659-.886.614-.415.88-.399.346.022.516.3l.638.895q-.688.758-1.796 1.383-1.082.627-2.417 1.052-1.308.399-2.816.598-1.483.201-2.973.108-2.715-.17-4.892-1.241-2.176-1.098-3.66-3.008-1.483-1.91-2.198-4.572-.687-2.689-.476-6.069.178-2.847 1.127-5.193.976-2.37 2.602-4.005 1.653-1.66 3.924-2.507 2.297-.845 5.118-.668zm-.091 1.891q-2.05-.128-3.713.41-1.664.536-2.936 1.66-1.246 1.124-2.096 2.754-.824 1.631-1.193 3.692l17.565 1.1q.134-2.13-.374-3.845-.479-1.74-1.497-2.98-1.017-1.239-2.496-1.946-1.45-.732-3.26-.845zM1017.378 274.544l1.657-26.482 1.357.085q.452.029.627.227t.2.653l-.162 5.574q.714-1.585 1.564-2.787.878-1.228 1.944-2.043 1.093-.813 2.372-1.187 1.308-.4 2.852-.303.825.052 1.613.261.79.183 1.379.594l-.323 1.743q-.16.418-.532.395-.32-.02-.973-.248-.627-.227-1.692-.293-1.544-.097-2.771.307-1.228.405-2.218 1.278-.988.846-1.793 2.185-.777 1.314-1.474 3.061l-1.072 17.14zM1046.282 276.352l-2.235-.14-9.522-27.18 1.996.124q.373.024.599.252.228.2.293.445l7.45 21.44q.327 1.17.495 2.33.31-1.13.808-2.248l10.09-20.343q.151-.284.374-.43.251-.172.57-.152l1.917.12zM1074.326 251.094q2.236.14 4.104 1.031 1.868.892 3.185 2.47 1.32 1.553 1.983 3.758.69 2.208.515 5.002-.036.586-.21.789-.172.203-.545.18l-19.269-1.206-.031.506q-.187 2.98.364 5.286.55 2.306 1.731 3.93 1.183 1.596 2.944 2.481 1.762.885 3.997 1.025 1.996.125 3.487-.21 1.492-.36 2.51-.831 1.046-.496 1.658-.885.614-.416.88-.399.346.022.516.3l.639.894q-.689.759-1.797 1.384-1.081.627-2.417 1.051-1.307.4-2.816.6-1.482.2-2.973.107-2.714-.17-4.892-1.241-2.175-1.098-3.659-3.008t-2.199-4.573q-.687-2.688-.475-6.068.178-2.848 1.126-5.193.977-2.37 2.602-4.005 1.654-1.66 3.924-2.507 2.297-.845 5.118-.668zm-.091 1.891q-2.05-.128-3.713.409-1.663.537-2.936 1.66-1.246 1.124-2.096 2.754-.823 1.632-1.193 3.693l17.566 1.099q.133-2.13-.374-3.844-.48-1.74-1.497-2.98-1.018-1.239-2.497-1.946-1.45-.732-3.26-.845zM1093.967 252.75l-1.059 16.927q-.233 3.726 1.337 5.961 1.572 2.21 5.059 2.428 2.581.161 4.899-1.003 2.319-1.191 4.248-3.422l1.245-19.907 2.555.16-1.656 26.481-1.41-.088q-.666-.042-.73-.74l.008-3.954q-1.98 2.174-4.488 3.406-2.482 1.234-5.436 1.05-2.21-.139-3.816-.934-1.607-.795-2.617-2.168-1.01-1.372-1.453-3.243-.444-1.872-.3-4.187l1.06-16.927zM1119.262 280.917l1.657-26.481 1.357.085q.453.028.627.226.175.198.2.654l-.162 5.574q.714-1.586 1.564-2.788.878-1.228 1.944-2.043 1.093-.813 2.373-1.187 1.307-.4 2.85-.303.826.052 1.614.261.79.183 1.38.594l-.324 1.744q-.16.417-.532.394-.32-.02-.973-.248-.627-.226-1.692-.293-1.543-.097-2.771.308-1.228.404-2.217 1.277-.989.847-1.794 2.186-.777 1.314-1.474 3.06l-1.072 17.14z" style="-inkscape-font-specification:'Lato Light'"/></g><g aria-label="Client" style="line-height:1.25" font-weight="300" font-size="60" font-family="Lato" fill="#fff"><path d="M758.108 993.755q.3.016.499.236l1.132 1.35q-1.391 1.34-3.008 2.399-1.585 1.03-3.484 1.742-1.868.685-4.107.99-2.21.336-4.847.2-4.404-.228-8.01-1.946-3.575-1.747-6.066-4.7-2.49-2.982-3.75-7.072-1.23-4.09-.977-9.003.25-4.823 1.954-8.73 1.703-3.908 4.547-6.615 2.845-2.737 6.7-4.1 3.857-1.392 8.411-1.157 4.344.224 7.63 1.746 3.286 1.522 5.916 4.12l-.999 1.3q-.258.348-.767.322-.36-.019-1.135-.72-.775-.7-2.173-1.554-1.396-.883-3.519-1.654-2.093-.769-5.089-.923-3.835-.199-7.109.954-3.244 1.154-5.677 3.492-2.404 2.339-3.875 5.808-1.471 3.468-1.699 7.872-.232 4.494.874 8.096 1.135 3.604 3.285 6.178 2.152 2.544 5.17 4.022 3.049 1.45 6.644 1.635 2.277.118 4.06-.09 1.813-.207 3.342-.73 1.53-.52 2.862-1.323 1.334-.802 2.652-1.906.156-.112.31-.164.154-.082.303-.075zM771.694 957.899l-2.253 43.591-2.876-.148 2.252-43.592zM784.236 972.365l-1.54 29.81-2.846-.147 1.54-29.81zm1.76-10.213q-.029.54-.293 1.006-.233.439-.611.78-.378.34-.868.526-.49.185-1.03.157-.54-.028-1.008-.262-.468-.235-.81-.613-.34-.378-.527-.838-.185-.49-.157-1.03.028-.54.263-1.008.236-.498.614-.84.378-.34.868-.525t1.03-.157q.539.028 1.007.262.469.235.81.613.34.378.524.898.215.492.187 1.031zM806.081 973.013q2.517.13 4.629 1.11 2.112.98 3.613 2.74 1.503 1.73 2.277 4.203.803 2.475.64 5.62-.034.66-.226.89-.192.23-.611.21l-21.691-1.121-.03.569q-.173 3.355.474 5.942.648 2.587 1.996 4.399 1.35 1.782 3.342 2.756 1.992.974 4.51 1.104 2.246.116 3.919-.278 1.674-.424 2.813-.966 1.171-.57 1.855-1.016.686-.475.985-.46.39.02.584.331l.73.999q-.766.862-2.005 1.579-1.208.718-2.706 1.212-1.466.465-3.16.708-1.665.244-3.343.157-3.056-.158-5.519-1.336-2.46-1.209-4.153-3.339-1.692-2.13-2.53-5.117-.805-3.016-.608-6.82.165-3.206 1.204-5.856 1.07-2.679 2.878-4.538 1.84-1.888 4.383-2.868 2.574-.978 5.75-.814zm-.08 2.129q-2.307-.12-4.172.505-1.864.625-3.282 1.903-1.388 1.28-2.324 3.125-.907 1.845-1.297 4.168l19.773 1.022q.124-2.397-.467-4.32-.56-1.952-1.72-3.333-1.16-1.382-2.833-2.16-1.64-.805-3.678-.91zM824.11 1004.315l1.54-29.81 1.587.082q.75.038.83.794l.038 4.507q2.202-2.5 4.978-3.918 2.777-1.418 6.133-1.245 2.457.127 4.274 1.002 1.847.876 3 2.408 1.152 1.531 1.675 3.631.522 2.1.387 4.706l-.984 19.055-2.876-.149.984-19.054q.217-4.195-1.578-6.66-1.794-2.497-5.719-2.7-2.936-.151-5.53 1.217-2.592 1.338-4.706 3.872l-1.158 22.41zM864.885 1006.902q-3.026-.156-4.647-1.922-1.59-1.765-1.41-5.27l1.053-20.373-4.285-.221q-.33-.017-.53-.208-.2-.19-.183-.52l.057-1.108 5.112-.097 1.27-10.628q.074-.267.265-.467.19-.2.52-.184l1.348.07-.588 11.385 9.407.486-.11 2.127-9.407-.486-1.045 20.223q-.063 1.228.19 2.143.284.885.794 1.482.54.6 1.275.907.735.309 1.604.354 1.079.055 1.873-.204.796-.29 1.384-.62.59-.36.964-.64.377-.311.587-.3.24.012.463.324l.714 1.298q-1.203 1.2-3.011 1.887-1.776.66-3.664.562z" style="-inkscape-font-specification:'Lato Light'"/></g></svg>